<?xml version="1.0" encoding="UTF-8" standalone="no"?>
<svg
   width="1080"
   height="1080"
   viewBox="0 0 285.74999 285.75"
   version="1.1"
   id="svg5"
   xmlns="http://www.w3.org/2000/svg"
   xmlns:svg="http://www.w3.org/2000/svg">
  <defs
     id="defs2" />
  <g
     id="layer1">
    <path
       style="fill:#d42aff;stroke-width:0.335433"
       d="m 25.914954,253.32121 c 0,0 68.016185,-134.78334 55.752836,-185.199344 C 69.404436,17.70586 207.4807,6.8051031 233.37001,10.892886 259.2593,14.980673 264.25548,44.04936 237.4578,56.76691 210.66009,69.484464 169.78226,66.759272 152.52271,82.656209 135.26318,98.553147 118.45785,238.90042 79.396796,264.78972 40.335746,290.67901 17.171638,267.62846 25.914954,253.32121 Z"
       id="path113" />
    <path
       style="fill:#d42aff;stroke-width:0.366287"
       d="m 152.09052,131.80198 c 95.16063,-29.65731 91.93976,-6.83576 91.93976,-6.83576 0,0 3.49656,28.75078 -27.37179,38.48493 -71.74676,22.6249 -71.67083,15.78189 -75.29442,12.11621 -7.47056,-7.55729 -5.53435,-38.62187 10.72645,-43.76538 z"
       id="path319" />
  </g>
</svg>
