<svg width="32" height="29" viewBox="0 0 32 29" fill="none" xmlns="http://www.w3.org/2000/svg">
<g clip-path="url(#clip0_0_1167)">
<path fill-rule="evenodd" clip-rule="evenodd" d="M9.16992 26.192L13.3304 27.2975V25.8519L13.67 25.5117H16.0474V27.2124V28.4029H13.5002L10.3586 27.0423L9.16992 26.192Z" fill="#CDBDB2"/>
<path fill-rule="evenodd" clip-rule="evenodd" d="M22.7549 26.192L18.6794 27.2975V25.8519L18.3398 25.5117H15.9624V27.2124V28.4029H18.5096L21.651 27.0423L22.7549 26.192Z" fill="#CDBDB2"/>
<path fill-rule="evenodd" clip-rule="evenodd" d="M13.6697 23.0444L13.3301 25.8504L13.7545 25.5103H18.1696L18.6791 25.8504L18.3394 23.0444L17.6602 22.6191L14.264 22.7043L13.6697 23.0444Z" fill="#393939"/>
<path fill-rule="evenodd" clip-rule="evenodd" d="M11.3774 4.08203L13.4152 8.84394L14.3492 22.7046H17.6605L18.6793 8.84394L20.5473 4.08203H11.3774Z" fill="#F89C35"/>
<path fill-rule="evenodd" clip-rule="evenodd" d="M2.46232 14.5413L0.0849609 21.4289L6.02835 21.0888H9.84903V18.1127L9.67922 11.9902L8.83017 12.6705L2.46232 14.5413Z" fill="#F89D35"/>
<path fill-rule="evenodd" clip-rule="evenodd" d="M6.9624 15.3066L13.9247 15.4767L13.1606 19.0481L9.84919 18.1978L6.9624 15.3066Z" fill="#D87C30"/>
<path fill-rule="evenodd" clip-rule="evenodd" d="M6.9624 15.3926L9.84919 18.1137V20.8348L6.9624 15.3926Z" fill="#EA8D3A"/>
<path fill-rule="evenodd" clip-rule="evenodd" d="M9.84912 18.1973L13.2453 19.0476L14.3492 22.7041L13.585 23.1292L9.84912 20.9184V18.1973Z" fill="#F89D35"/>
<path fill-rule="evenodd" clip-rule="evenodd" d="M9.84917 20.9199L9.16992 26.192L13.67 23.0458L9.84917 20.9199Z" fill="#EB8F35"/>
<path fill-rule="evenodd" clip-rule="evenodd" d="M13.9247 15.4766L14.3493 22.7045L13.0757 19.0055L13.9247 15.4766Z" fill="#EA8E3A"/>
<path fill-rule="evenodd" clip-rule="evenodd" d="M5.94336 21.005L9.84902 20.9199L9.16977 26.192L5.94336 21.005Z" fill="#D87C30"/>
<path fill-rule="evenodd" clip-rule="evenodd" d="M1.95289 28.4869L9.16979 26.1909L5.94338 21.0039L0.0849609 21.429L1.95289 28.4869Z" fill="#EB8F35"/>
<path fill-rule="evenodd" clip-rule="evenodd" d="M13.4152 8.84375L9.76437 11.905L6.9624 15.3063L13.9247 15.5615L13.4152 8.84375Z" fill="#E8821E"/>
<path fill-rule="evenodd" clip-rule="evenodd" d="M9.16992 26.1911L13.67 23.0449L13.3304 25.766V27.2966L10.2738 26.7013L9.16992 26.1911Z" fill="#DFCEC3"/>
<path fill-rule="evenodd" clip-rule="evenodd" d="M22.7549 26.1911L18.3398 23.0449L18.6794 25.766V27.2966L21.736 26.7013L22.7549 26.1911Z" fill="#DFCEC3"/>
<path fill-rule="evenodd" clip-rule="evenodd" d="M12.0567 17.0078L12.9907 18.9637L9.67933 18.1133L12.0567 17.0078Z" fill="#393939"/>
<path fill-rule="evenodd" clip-rule="evenodd" d="M1.86768 0.0859375L13.4148 8.84436L11.4621 4.08246L1.86768 0.0859375Z" fill="#E88F35"/>
<path fill-rule="evenodd" clip-rule="evenodd" d="M1.86815 0.0859375L0.339844 4.76281L1.1889 9.86485L0.594561 10.205L1.44362 10.9703L0.764372 11.5655L1.69833 12.4159L1.10399 12.9261L2.46249 14.6268L8.83041 12.671C11.9436 10.1766 13.4719 8.90113 13.4153 8.84444C13.3587 8.78775 9.50966 5.86825 1.86815 0.0859375Z" fill="#8E5A30"/>
<path fill-rule="evenodd" clip-rule="evenodd" d="M29.462 14.5413L31.8394 21.4289L25.896 21.0888H22.0753V18.1127L22.2451 11.9902L23.0941 12.6705L29.462 14.5413Z" fill="#F89D35"/>
<path fill-rule="evenodd" clip-rule="evenodd" d="M24.9619 15.3066L17.9997 15.4767L18.7637 19.0481L22.0751 18.1978L24.9619 15.3066Z" fill="#D87C30"/>
<path fill-rule="evenodd" clip-rule="evenodd" d="M24.9619 15.3926L22.0751 18.1137V20.8348L24.9619 15.3926Z" fill="#EA8D3A"/>
<path fill-rule="evenodd" clip-rule="evenodd" d="M22.0752 18.1973L18.679 19.0476L17.5751 22.7041L18.3393 23.1292L22.0752 20.9184V18.1973Z" fill="#F89D35"/>
<path fill-rule="evenodd" clip-rule="evenodd" d="M22.0751 20.9199L22.7544 26.192L18.3393 23.1308L22.0751 20.9199Z" fill="#EB8F35"/>
<path fill-rule="evenodd" clip-rule="evenodd" d="M17.9996 15.4766L17.575 22.7045L18.8486 19.0055L17.9996 15.4766Z" fill="#EA8E3A"/>
<path fill-rule="evenodd" clip-rule="evenodd" d="M25.981 21.005L22.0753 20.9199L22.7545 26.192L25.981 21.005Z" fill="#D87C30"/>
<path fill-rule="evenodd" clip-rule="evenodd" d="M29.9714 28.4869L22.7545 26.1909L25.9809 21.0039L31.8394 21.429L29.9714 28.4869Z" fill="#EB8F35"/>
<path fill-rule="evenodd" clip-rule="evenodd" d="M18.5091 8.84375L22.16 11.905L24.9619 15.3063L17.9997 15.5615L18.5091 8.84375Z" fill="#E8821E"/>
<path fill-rule="evenodd" clip-rule="evenodd" d="M19.8676 17.0078L18.9336 18.9637L22.245 18.1133L19.8676 17.0078Z" fill="#393939"/>
<path fill-rule="evenodd" clip-rule="evenodd" d="M30.0566 0.0859375L18.5095 8.84436L20.4622 4.08246L30.0566 0.0859375Z" fill="#E88F35"/>
<path fill-rule="evenodd" clip-rule="evenodd" d="M30.0567 0.0859375L31.585 4.76281L30.7359 9.86485L31.3302 10.205L30.4812 10.9703L31.1604 11.5655L30.2265 12.4159L30.8208 12.9261L29.4623 14.6268L23.0944 12.671C19.9812 10.1766 18.4529 8.90113 18.5095 8.84444C18.5661 8.78775 22.4151 5.86825 30.0567 0.0859375Z" fill="#8E5A30"/>
</g>
<defs>
<clipPath id="clip0_0_1167">
<rect width="32" height="28.5714" fill="white"/>
</clipPath>
</defs>
</svg>
